<?xml version="1.0" standalone="no"?>
<!DOCTYPE svg PUBLIC "-//W3C//DTD SVG 20010904//EN"
 "http://www.w3.org/TR/2001/REC-SVG-20010904/DTD/svg10.dtd">
<svg version="1.0" xmlns="http://www.w3.org/2000/svg"
 width="480.000000pt" height="480.000000pt" viewBox="0 0 480.000000 480.000000"
 preserveAspectRatio="xMidYMid meet">
<metadata>
Created by potrace 1.14, written by Peter Selinger 2001-2017
</metadata>
<g transform="translate(0.000000,480.000000) scale(0.100000,-0.100000)"
fill="#000000" stroke="none">
<path d="M655 3798 c-3 -7 -4 -629 -3 -1383 l3 -1370 160 0 160 0 7 580 c4
319 7 940 5 1380 l-2 800 -163 3 c-124 2 -164 0 -167 -10z"/>
<path d="M2413 3798 c-8 -15 -50 -132 -158 -448 -41 -118 -108 -314 -150 -435
-42 -121 -103 -296 -134 -390 -32 -93 -73 -212 -91 -263 -17 -51 -29 -99 -26
-107 4 -12 29 -15 121 -15 l116 0 28 63 c16 34 51 116 79 182 89 211 167 396
237 562 37 89 75 165 83 168 42 16 41 27 49 -1045 l8 -1025 160 0 160 0 0
1380 0 1380 -237 3 c-183 2 -238 -1 -245 -10z"/>
<path d="M3472 1288 c-16 -16 -17 -229 0 -246 14 -14 704 -17 726 -4 9 7 12
40 10 133 l-3 124 -360 3 c-272 2 -364 -1 -373 -10z"/>
</g>
</svg>
