<svg id="svg" xmlns="http://www.w3.org/2000/svg" xmlns:xlink="http://www.w3.org/1999/xlink" width="400" height="962.7067669172932" viewBox="0, 0, 400,962.7067669172932"><g id="svgg"><path id="path0" d="M66.758 0.462 C 63.946 1.329,61.761 4.147,61.459 7.295 C 61.332 8.625,69.580 45.932,114.171 245.714 C 155.834 432.374,167.038 483.002,167.051 484.662 C 167.075 487.735,165.641 490.166,162.928 491.649 C 162.007 492.152,157.802 492.188,83.910 492.331 C 10.426 492.472,5.799 492.512,4.748 493.007 C 3.015 493.823,1.476 495.340,0.707 496.990 L 0.006 498.496 0.003 538.731 C 0.000 572.582,0.067 579.127,0.422 579.976 C 1.007 581.377,2.880 583.375,4.340 584.157 L 5.564 584.812 95.639 584.962 C 182.753 585.108,185.749 585.131,186.767 585.673 C 188.231 586.452,189.721 587.914,190.407 589.245 C 190.745 589.901,208.064 666.980,231.899 773.907 C 266.954 931.166,272.929 957.637,273.632 958.797 C 274.657 960.485,276.813 961.963,278.875 962.390 C 281.943 963.026,393.586 962.673,394.969 962.023 C 397.915 960.639,399.761 957.847,399.786 954.739 C 399.802 952.672,167.307 6.158,166.294 4.170 C 165.541 2.692,164.027 1.228,162.563 0.563 C 160.927 -0.181,69.155 -0.277,66.758 0.462 " stroke="none" fill="#000000" fill-rule="evenodd"></path></g></svg>