<svg id="svg" xmlns="http://www.w3.org/2000/svg" xmlns:xlink="http://www.w3.org/1999/xlink" width="400" height="620.6495395055744" viewBox="0, 0, 400,620.6495395055744"><g id="svgg"><path id="path0" d="M43.038 0.298 C 41.226 0.857,39.817 2.674,39.622 4.703 C 39.524 5.735,41.869 16.300,97.248 264.344 C 103.766 293.540,107.803 312.007,107.802 312.623 C 107.799 314.475,106.521 316.363,104.716 317.184 C 104.082 317.472,99.746 317.499,53.902 317.504 C 6.932 317.510,3.736 317.531,3.061 317.843 C 1.950 318.358,0.953 319.338,0.456 320.406 L 0.004 321.377 0.002 347.316 C 0.000 369.139,0.043 373.359,0.272 373.906 C 0.649 374.810,1.857 376.098,2.798 376.602 L 3.587 377.024 61.755 377.121 L 119.922 377.218 120.716 377.642 C 121.733 378.186,122.602 379.180,122.999 380.251 C 123.172 380.715,129.586 409.278,137.253 443.723 C 144.920 478.168,156.748 531.304,163.536 561.803 C 177.099 622.740,176.020 618.384,177.855 619.618 C 179.456 620.695,178.069 620.660,217.353 620.604 C 251.874 620.555,253.943 620.534,254.633 620.209 C 256.533 619.316,257.723 617.516,257.739 615.513 C 257.746 614.621,193.643 352.715,192.024 347.019 C 191.932 346.696,195.266 346.681,260.816 346.728 L 329.705 346.777 362.935 483.665 C 381.211 558.953,396.189 620.579,396.219 620.612 C 396.249 620.645,396.698 620.645,397.218 620.612 L 398.163 620.553 363.215 476.684 C 340.680 383.912,328.301 332.610,328.360 332.235 C 328.413 331.903,328.386 331.757,328.297 331.894 C 328.206 332.036,311.414 263.233,287.825 166.068 L 247.508 0.000 246.607 0.000 C 245.757 -0.000,245.701 0.033,245.622 0.571 C 245.576 0.886,245.588 1.112,245.650 1.073 C 245.712 1.035,262.549 70.165,283.065 154.695 C 303.581 239.225,320.572 309.215,320.822 310.228 C 321.073 311.241,323.025 319.268,325.161 328.066 C 327.296 336.864,329.091 344.215,329.150 344.401 C 329.250 344.724,325.885 344.741,260.355 344.741 L 191.455 344.741 149.511 174.067 C 126.442 80.196,107.406 3.076,107.209 2.688 C 106.723 1.735,105.747 0.792,104.803 0.363 C 103.748 -0.116,44.584 -0.179,43.038 0.298 " stroke="none" fill="#000000" fill-rule="evenodd"></path></g></svg>