<svg id="svg" xmlns="http://www.w3.org/2000/svg" xmlns:xlink="http://www.w3.org/1999/xlink" width="400" height="851.7602283539486" viewBox="0, 0, 400,851.7602283539486"><g id="svgg"><path id="path0" d="M381.541 0.631 C 364.332 1.652,355.803 2.453,343.312 4.220 C 160.742 30.041,18.846 178.798,1.726 362.322 C 1.404 365.775,0.938 370.913,0.691 373.739 C 0.354 377.597,0.211 437.781,0.115 615.319 L -0.012 851.760 1.707 851.760 L 3.425 851.760 3.426 619.315 C 3.427 379.997,3.420 381.108,4.978 364.034 C 23.526 160.719,194.420 4.224,398.763 3.430 C 399.952 3.425,400.000 3.366,400.000 1.903 L 400.000 0.381 391.722 0.449 C 387.169 0.487,382.588 0.569,381.541 0.631 M383.254 177.989 C 382.312 178.055,378.972 178.288,375.833 178.506 C 250.886 187.182,140.777 272.384,100.088 391.876 C 90.971 418.653,86.482 441.047,83.661 473.834 C 83.335 477.620,83.183 528.026,83.084 665.366 L 82.949 851.760 84.664 851.760 L 86.378 851.760 86.507 664.605 C 86.605 523.196,86.748 476.241,87.092 472.502 C 90.846 431.726,98.627 400.526,113.255 367.583 C 163.360 254.750,275.863 181.142,398.763 180.784 C 399.952 180.780,400.000 180.721,400.000 179.258 L 400.000 177.735 392.483 177.802 C 388.349 177.839,384.196 177.923,383.254 177.989 M387.498 372.247 C 277.767 378.208,187.543 463.376,175.656 572.217 C 174.360 584.087,174.318 588.701,174.314 720.171 L 174.310 851.760 176.016 851.760 L 177.722 851.760 177.849 716.175 C 177.986 569.686,177.855 579.560,179.851 565.747 C 195.221 459.376,284.999 379.141,392.848 375.390 L 400.000 375.141 400.000 373.489 L 400.000 371.836 396.480 371.893 C 394.543 371.925,390.502 372.084,387.498 372.247 " stroke="none" fill="#000000" fill-rule="evenodd"></path></g></svg>