<svg id="svg" xmlns="http://www.w3.org/2000/svg" xmlns:xlink="http://www.w3.org/1999/xlink" width="400" height="851.7602283539486" viewBox="0, 0, 400,851.7602283539486"><g id="svgg"><path id="path0" d="M-0.000 1.844 C -0.000 3.373,0.041 3.425,1.237 3.430 C 205.580 4.224,376.474 160.719,395.022 364.034 C 396.580 381.108,396.573 379.997,396.574 619.315 L 396.575 851.760 398.293 851.760 L 400.012 851.760 399.885 615.319 C 399.789 437.781,399.646 377.597,399.309 373.739 C 396.739 344.330,393.958 326.538,388.380 303.833 C 345.715 130.150,189.294 4.315,11.323 0.504 L -0.000 0.262 -0.000 1.844 M-0.000 179.200 C -0.000 180.728,0.041 180.780,1.237 180.784 C 124.137 181.142,236.640 254.750,286.745 367.583 C 301.373 400.526,309.154 431.726,312.908 472.502 C 313.252 476.241,313.395 523.196,313.493 664.605 L 313.622 851.760 315.336 851.760 L 317.051 851.760 316.916 665.366 C 316.817 528.026,316.665 477.620,316.339 473.834 C 313.518 441.047,309.029 418.653,299.912 391.876 C 257.515 267.370,140.395 180.912,9.990 177.855 L -0.000 177.621 -0.000 179.200 M0.000 373.489 L 0.000 375.141 7.152 375.390 C 115.001 379.141,204.779 459.376,220.149 565.747 C 222.145 579.560,222.014 569.686,222.151 716.175 L 222.278 851.760 223.984 851.760 L 225.690 851.760 225.686 720.171 C 225.682 588.701,225.640 584.087,224.344 572.217 C 212.067 459.802,115.013 372.189,2.379 371.844 L 0.000 371.836 0.000 373.489 " stroke="none" fill="#000000" fill-rule="evenodd"></path></g></svg>