<svg id="svg" xmlns="http://www.w3.org/2000/svg" xmlns:xlink="http://www.w3.org/1999/xlink" width="400" height="317.8051511758119" viewBox="0, 0, 400,317.8051511758119"><g id="svgg"><path id="path0" d="M26.151 23.722 L 25.420 24.375 25.362 158.716 C 25.318 259.382,25.368 293.214,25.561 293.682 C 26.110 295.017,25.399 294.961,41.657 294.961 C 57.776 294.961,57.160 295.006,57.810 293.789 C 58.120 293.212,59.205 25.320,58.902 24.521 C 58.321 22.993,59.181 23.068,42.191 23.068 L 26.883 23.068 26.151 23.722 M198.871 23.394 C 198.559 23.565,198.183 23.940,198.036 24.227 C 197.202 25.854,142.889 184.202,142.889 185.005 C 142.889 187.254,142.988 187.270,156.042 187.188 L 166.619 187.122 167.174 186.562 C 167.537 186.196,174.477 170.033,187.224 139.866 C 197.947 114.490,206.870 93.401,207.053 93.000 C 207.891 91.159,210.520 90.819,212.054 92.352 L 212.878 93.176 213.026 106.666 C 213.107 114.086,213.336 156.237,213.535 200.336 C 213.733 244.434,213.955 283.483,214.029 287.110 L 214.163 293.705 214.791 294.333 L 215.419 294.961 230.452 294.961 L 245.485 294.961 246.020 294.426 C 246.857 293.589,246.826 299.196,246.760 158.404 L 246.697 24.422 246.076 23.801 L 245.455 23.180 222.447 23.132 C 203.168 23.091,199.348 23.133,198.871 23.394 M302.525 269.777 C 301.453 270.361,301.456 270.332,301.456 282.645 L 301.456 294.323 302.110 294.978 L 302.765 295.633 338.263 295.633 L 373.762 295.633 374.451 295.053 L 375.140 294.473 375.140 282.635 L 375.140 270.798 374.599 270.169 L 374.059 269.541 338.597 269.493 C 307.609 269.451,303.059 269.486,302.525 269.777 " stroke="none" fill="#ffffff" fill-rule="evenodd"></path></g></svg>