<?xml version="1.0" encoding="UTF-8"?>
<svg xmlns="http://www.w3.org/2000/svg" xmlns:xlink="http://www.w3.org/1999/xlink" width="303pt" height="306pt" viewBox="0 0 303 306" version="1.1">
<g id="surface1">
<path style=" stroke:none;fill-rule:nonzero;fill:rgb(0%,0%,0%);fill-opacity:1;" d="M 97.648438 6.210938 C 95.476562 8.382812 93.75 10.480469 93.75 10.855469 C 93.75 11.902344 111.148438 29.191406 112.125 29.191406 C 112.574219 29.191406 114.75 27.320312 117 25.074219 L 121.125 20.957031 L 111.75 11.601562 C 106.574219 6.4375 102.226562 2.246094 102 2.246094 C 101.773438 2.246094 99.824219 4.042969 97.648438 6.210938 Z M 97.648438 6.210938 "/>
<path style=" stroke:none;fill-rule:nonzero;fill:rgb(0%,0%,0%);fill-opacity:1;" d="M 190.5 15.71875 L 190.5 29.191406 L 202.5 29.191406 L 202.5 2.246094 L 190.5 2.246094 Z M 190.5 15.71875 "/>
<path style=" stroke:none;fill-rule:nonzero;fill:rgb(0%,0%,0%);fill-opacity:1;" d="M 282 11.601562 L 272.625 20.957031 L 276.976562 25.226562 L 281.25 29.566406 L 290.773438 20.0625 L 300.375 10.480469 L 296.25 6.363281 C 294 4.117188 291.976562 2.246094 291.75 2.246094 C 291.523438 2.246094 287.175781 6.4375 282 11.601562 Z M 282 11.601562 "/>
<path style=" stroke:none;fill-rule:nonzero;fill:rgb(0%,0%,0%);fill-opacity:1;" d="M 4.050781 10.703125 C 3.824219 11.304688 3.75 14.074219 3.898438 16.917969 L 4.125 22.082031 L 17.476562 22.304688 L 30.75 22.457031 L 30.75 9.730469 L 17.625 9.730469 C 7.273438 9.730469 4.351562 9.957031 4.050781 10.703125 Z M 4.050781 10.703125 "/>
<path style=" stroke:none;fill-rule:nonzero;fill:rgb(0%,0%,0%);fill-opacity:1;" d="M 7.5 96.1875 L 3.375 100.304688 L 22.125 119.015625 L 26.398438 114.75 L 30.75 110.410156 L 21.601562 101.277344 C 16.5 96.1875 12.226562 92.070312 12 92.070312 C 11.773438 92.070312 9.75 93.941406 7.5 96.1875 Z M 7.5 96.1875 "/>
<path style=" stroke:none;fill-rule:nonzero;fill:rgb(0%,0%,0%);fill-opacity:1;" d="M 101.25 105.542969 L 101.25 119.015625 L 113.25 119.015625 L 113.25 92.070312 L 101.25 92.070312 Z M 101.25 105.542969 "/>
<path style=" stroke:none;fill-rule:nonzero;fill:rgb(0%,0%,0%);fill-opacity:1;" d="M 191.773438 101.652344 L 182.25 111.15625 L 186.601562 115.5 L 190.875 119.765625 L 200.476562 110.183594 L 210 100.675781 L 205.648438 96.335938 L 201.375 92.070312 Z M 191.773438 101.652344 "/>
<path style=" stroke:none;fill-rule:nonzero;fill:rgb(0%,0%,0%);fill-opacity:1;" d="M 272.25 105.542969 L 272.25 111.53125 L 299.25 111.53125 L 299.25 99.554688 L 272.25 99.554688 Z M 272.25 105.542969 "/>
<path style=" stroke:none;fill-rule:nonzero;fill:rgb(0%,0%,0%);fill-opacity:1;" d="M 11.25 194.617188 L 11.25 208.167969 L 17.476562 207.941406 L 23.625 207.71875 L 23.851562 194.394531 L 24 181.144531 L 11.25 181.144531 Z M 11.25 194.617188 "/>
<path style=" stroke:none;fill-rule:nonzero;fill:rgb(0%,0%,0%);fill-opacity:1;" d="M 101.773438 190.726562 L 92.25 200.230469 L 96.601562 204.574219 L 100.875 208.839844 L 110.476562 199.257812 L 120 189.753906 L 115.648438 185.410156 L 111.375 181.144531 Z M 101.773438 190.726562 "/>
<path style=" stroke:none;fill-rule:nonzero;fill:rgb(0%,0%,0%);fill-opacity:1;" d="M 274.5 185.261719 L 270.375 189.378906 L 279.976562 198.960938 L 289.5 208.464844 L 293.773438 204.125 L 298.125 199.859375 L 288.75 190.5 C 283.574219 185.335938 279.226562 181.144531 279 181.144531 C 278.773438 181.144531 276.75 183.015625 274.5 185.261719 Z M 274.5 185.261719 "/>
<path style=" stroke:none;fill-rule:nonzero;fill:rgb(0%,0%,0%);fill-opacity:1;" d="M 183 194.617188 L 183 200.605469 L 210 200.605469 L 210 188.628906 L 183 188.628906 Z M 183 194.617188 "/>
<path style=" stroke:none;fill-rule:nonzero;fill:rgb(0%,0%,0%);fill-opacity:1;" d="M 12.523438 279.800781 L 3 289.308594 L 6.976562 293.273438 C 9.148438 295.371094 11.25 297.167969 11.625 297.167969 C 12.074219 297.167969 16.5 293.050781 21.601562 287.960938 L 30.75 278.828125 L 26.398438 274.488281 L 22.125 270.21875 Z M 12.523438 279.800781 "/>
<path style=" stroke:none;fill-rule:nonzero;fill:rgb(0%,0%,0%);fill-opacity:1;" d="M 186.75 274.335938 L 182.625 278.453125 L 192.226562 288.035156 L 201.75 297.542969 L 206.023438 293.199219 L 210.375 288.933594 L 201 279.578125 C 195.824219 274.410156 191.476562 270.21875 191.25 270.21875 C 191.023438 270.21875 189 272.089844 186.75 274.335938 Z M 186.75 274.335938 "/>
<path style=" stroke:none;fill-rule:nonzero;fill:rgb(0%,0%,0%);fill-opacity:1;" d="M 279.75 283.695312 L 279.75 297.167969 L 291.75 297.167969 L 291.75 270.21875 L 279.75 270.21875 Z M 279.75 283.695312 "/>
<path style=" stroke:none;fill-rule:nonzero;fill:rgb(0%,0%,0%);fill-opacity:1;" d="M 93.75 284.066406 L 93.75 290.429688 L 120.75 290.429688 L 120.75 277.707031 L 93.75 277.707031 Z M 93.75 284.066406 "/>
</g>
</svg>
