<svg id="svg" xmlns="http://www.w3.org/2000/svg" xmlns:xlink="http://www.w3.org/1999/xlink" width="400" height="396.30911188004615" viewBox="0, 0, 400,396.30911188004615"><g id="svgg"><path id="path0" d="M361.355 24.243 C 356.520 27.630,356.597 36.848,361.483 39.481 C 365.262 41.518,366.256 39.791,366.149 31.376 C 366.049 23.574,364.852 21.793,361.355 24.243 M295.040 24.988 C 288.668 28.497,288.068 35.097,293.844 38.143 C 298.971 40.847,300.346 39.576,300.346 32.134 C 300.346 24.789,298.911 22.857,295.040 24.988 M164.014 27.888 C 163.760 27.987,162.780 28.197,161.836 28.354 C 158.027 28.991,155.908 32.730,158.422 34.378 C 159.277 34.938,160.579 35.068,164.304 34.965 L 169.089 34.833 169.224 32.295 C 169.411 28.769,166.996 26.726,164.014 27.888 M226.528 29.412 C 224.387 30.482,224.098 33.932,226.067 34.928 C 229.761 36.797,240.052 35.278,240.286 32.829 C 240.637 29.171,231.536 26.911,226.528 29.412 M27.811 29.998 C 23.451 31.752,28.516 39.050,33.825 38.664 L 35.755 38.524 35.888 34.025 L 36.020 29.527 32.427 29.556 C 30.452 29.572,28.374 29.771,27.811 29.998 M93.808 30.074 C 90.184 31.826,95.103 41.522,99.616 41.522 C 103.579 41.522,109.398 33.890,107.596 31.055 C 106.665 29.591,96.327 28.856,93.808 30.074 M229.021 89.738 C 225.760 92.998,225.089 98.933,227.447 103.652 C 230.482 109.725,234.504 108.457,235.756 101.033 C 237.190 92.534,233.094 85.665,229.021 89.738 M29.459 91.755 C 25.742 94.112,24.483 97.506,26.135 100.715 C 30.195 108.597,36.416 109.060,38.935 101.668 C 41.637 93.737,35.862 87.694,29.459 91.755 M163.783 90.751 C 160.052 92.109,158.106 97.437,160.024 101.045 C 162.452 105.615,167.419 105.926,171.096 101.738 C 175.191 97.075,169.578 88.643,163.783 90.751 M294.579 91.288 C 290.025 93.361,287.708 98.498,290.657 99.983 C 293.687 101.507,305.068 100.572,305.646 98.750 C 307.111 94.135,299.539 89.029,294.579 91.288 M361.257 93.189 C 355.772 94.535,357.872 107.036,363.584 107.036 C 365.949 107.036,366.534 105.665,366.712 99.700 C 366.910 93.102,366.006 92.023,361.257 93.189 M92.784 95.795 C 89.735 97.931,94.386 105.342,99.179 105.985 C 102.913 106.486,107.258 98.215,104.637 95.594 C 103.731 94.689,94.131 94.852,92.784 95.795 M294.675 154.819 C 287.930 161.073,289.442 167.804,297.496 167.381 C 301.110 167.191,301.604 166.174,300.963 160.255 C 300.256 153.732,297.974 151.760,294.675 154.819 M97.314 154.777 C 94.989 156.041,92.734 160.221,92.734 163.265 C 92.734 168.347,101.712 170.287,106.264 166.188 C 110.824 162.083,102.767 151.811,97.314 154.777 M30.650 156.351 C 23.993 159.375,23.050 163.877,27.941 169.290 C 31.099 172.786,33.907 173.462,36.435 171.336 C 43.977 164.989,39.152 152.489,30.650 156.351 M229.349 158.194 C 227.951 159.592,227.889 166.259,229.266 166.996 C 232.644 168.804,240.369 166.203,240.369 163.258 C 240.369 159.350,232.026 155.517,229.349 158.194 M162.007 158.441 C 153.463 160.579,155.151 167.319,164.365 167.858 C 168.602 168.105,168.858 167.833,168.858 163.091 C 168.858 157.980,167.508 157.064,162.007 158.441 M358.478 161.706 C 357.032 165.508,360.482 172.088,363.921 172.088 C 368.167 172.088,373.723 162.754,370.503 161.031 C 368.410 159.911,358.959 160.441,358.478 161.706 M97.604 220.633 C 96.265 222.546,96.582 232.407,98.004 233.055 C 101.344 234.577,104.731 232.054,104.724 228.049 C 104.714 221.970,100.061 217.125,97.604 220.633 M295.397 221.779 C 293.594 224.530,294.388 235.904,296.437 236.683 C 298.065 237.302,299.783 236.520,300.218 234.964 C 301.014 232.115,300.644 222.546,299.698 221.501 C 298.429 220.100,296.412 220.230,295.397 221.779 M360.710 221.667 C 357.512 223.840,355.957 229.371,358.119 230.885 C 359.578 231.907,366.880 231.905,367.729 230.882 C 368.553 229.889,368.374 225.490,367.428 223.498 C 365.946 220.375,363.566 219.726,360.710 221.667 M230.219 222.679 C 228.256 223.429,227.443 231.454,229.092 233.807 C 230.168 235.344,233.062 235.239,234.338 233.617 C 235.639 231.963,235.740 225.322,234.487 223.813 C 233.651 222.807,231.430 222.216,230.219 222.679 M161.684 223.486 C 156.325 225.821,156.837 231.737,162.630 234.419 C 167.112 236.495,171.237 233.724,171.353 228.559 C 171.459 223.847,166.649 221.324,161.684 223.486 M29.791 225.408 C 28.716 226.483,28.815 230.731,29.949 232.129 C 32.960 235.843,43.493 231.360,41.586 227.176 C 40.525 224.847,31.677 223.521,29.791 225.408 M97.809 284.983 C 93.671 286.478,90.185 294.223,92.724 296.279 C 95.290 298.357,101.772 298.731,103.597 296.907 C 107.353 293.151,102.555 283.267,97.809 284.983 M295.938 286.007 C 292.641 287.403,290.157 293.232,291.837 295.630 C 292.770 296.962,302.589 297.202,304.396 295.937 C 308.422 293.116,300.663 284.007,295.938 286.007 M163.525 287.620 C 162.205 288.584,161.954 298.398,163.187 300.807 C 166.118 306.533,169.978 299.269,168.663 290.501 C 168.166 287.186,165.877 285.903,163.525 287.620 M229.919 287.425 C 227.758 288.297,227.100 296.790,229.029 298.921 C 230.774 300.850,234.987 299.783,236.697 296.979 C 239.597 292.222,234.798 285.457,229.919 287.425 M28.835 289.505 C 26.694 290.263,24.910 292.113,24.921 293.567 C 24.938 296.094,26.478 296.655,33.397 296.655 C 39.741 296.655,41.383 296.220,41.835 294.417 C 42.866 290.309,34.982 287.331,28.835 289.505 M359.241 289.485 C 352.485 291.894,354.516 298.020,362.336 298.821 C 371.047 299.713,375.253 291.727,367.322 289.351 C 364.951 288.641,361.446 288.699,359.241 289.485 M164.429 350.065 C 162.845 351.122,162.059 363.595,163.392 366.521 C 164.580 369.129,167.549 368.257,169.265 364.796 C 172.346 358.582,168.629 347.260,164.429 350.065 M228.370 352.375 C 223.296 357.449,225.188 364.014,231.724 364.014 C 235.654 364.014,237.073 362.106,236.533 357.548 C 235.779 351.187,231.971 348.774,228.370 352.375 M97.472 354.628 C 94.001 355.372,93.593 362.080,96.913 363.797 C 100.778 365.796,103.114 364.077,103.114 359.233 C 103.114 354.854,101.720 353.716,97.472 354.628 M358.939 355.563 C 354.146 358.051,357.804 365.681,363.748 365.594 C 368.793 365.521,374.030 361.230,373.008 358.008 C 372.172 355.376,362.529 353.700,358.939 355.563 M29.142 356.167 C 22.697 357.156,27.617 366.382,34.250 365.745 C 39.877 365.204,44.388 358.392,40.253 356.679 C 38.724 356.046,31.958 355.734,29.142 356.167 M292.964 356.030 C 288.727 357.544,292.781 368.166,297.597 368.166 C 300.999 368.166,304.162 359.345,301.789 356.475 C 301.159 355.713,294.753 355.390,292.964 356.030 " stroke="none" fill="#000000" fill-rule="evenodd"></path></g></svg>