<svg id="svg" xmlns="http://www.w3.org/2000/svg" xmlns:xlink="http://www.w3.org/1999/xlink" width="400" height="398.57397504456327" viewBox="0, 0, 400,398.57397504456327"><g id="svgg"><path id="path0" d="M139.483 39.517 C 136.885 42.031,134.759 44.340,134.759 44.648 C 134.759 44.956,137.107 47.509,139.976 50.322 C 142.845 53.135,147.641 57.883,150.633 60.873 C 153.625 63.864,156.169 66.310,156.285 66.310 C 156.695 66.310,166.132 56.676,166.132 56.258 C 166.132 55.721,145.140 34.936,144.604 34.942 C 144.386 34.945,142.081 37.003,139.483 39.517 M343.317 45.453 L 332.806 55.969 337.788 60.961 C 340.529 63.707,342.910 65.954,343.080 65.954 C 343.568 65.954,364.349 45.023,364.349 44.532 C 364.349 43.777,355.324 34.954,354.543 34.946 C 354.075 34.940,350.192 38.575,343.317 45.453 M242.068 50.438 L 242.068 65.597 249.380 65.597 L 256.692 65.597 256.599 50.535 L 256.506 35.472 249.287 35.376 L 242.068 35.279 242.068 50.438 M36.007 50.624 L 36.007 57.754 51.337 57.754 L 66.667 57.754 66.667 50.624 L 66.667 43.494 51.337 43.494 L 36.007 43.494 36.007 50.624 M40.117 138.474 C 37.464 141.105,35.294 143.472,35.294 143.734 C 35.294 144.398,56.029 165.062,56.695 165.062 C 57.190 165.062,58.632 163.665,64.695 157.310 L 66.820 155.083 56.145 144.386 C 50.274 138.503,45.351 133.690,45.205 133.690 C 45.059 133.690,42.769 135.843,40.117 138.474 M143.394 134.823 C 142.934 135.283,142.727 163.688,143.175 164.855 C 143.363 165.343,144.346 165.419,150.488 165.419 L 157.583 165.419 157.490 150.000 L 157.398 134.581 150.613 134.485 C 145.637 134.414,143.713 134.504,143.394 134.823 M243.707 144.971 C 237.886 150.784,233.170 155.744,233.228 155.994 C 233.323 156.403,240.495 163.916,242.342 165.541 C 243.083 166.193,243.129 166.158,248.193 160.955 C 251.001 158.072,254.564 154.487,256.113 152.990 C 263.328 146.012,264.528 144.770,264.528 144.277 C 264.528 143.752,255.100 134.403,254.570 134.403 C 254.417 134.403,249.529 139.159,243.707 144.971 M332.977 149.733 L 332.977 156.863 348.307 156.863 L 363.636 156.863 363.636 149.733 L 363.636 142.602 348.307 142.602 L 332.977 142.602 332.977 149.733 M44.207 248.128 L 44.207 263.458 51.337 263.458 L 58.467 263.458 58.467 248.128 L 58.467 232.799 51.337 232.799 L 44.207 232.799 44.207 248.128 M335.913 237.527 C 333.318 240.128,331.194 242.495,331.194 242.788 C 331.194 243.412,351.854 264.171,352.475 264.171 C 353.050 264.171,362.210 254.849,362.210 254.264 C 362.210 253.720,341.534 232.805,340.993 232.801 C 340.794 232.800,338.508 234.926,335.913 237.527 M144.296 243.804 C 138.463 249.631,133.690 254.550,133.690 254.735 C 133.690 255.279,143.079 264.528,143.631 264.528 C 144.235 264.528,165.062 243.890,165.062 243.291 C 165.062 242.741,155.789 233.147,155.289 233.182 C 155.076 233.196,150.129 237.976,144.296 243.804 M233.512 248.307 L 233.512 255.258 249.020 255.258 L 264.528 255.258 264.528 248.307 L 264.528 241.355 249.020 241.355 L 233.512 241.355 233.512 248.307 M45.645 341.932 C 39.177 348.420,35.294 352.575,35.294 353.009 C 35.294 353.945,43.925 362.567,44.863 362.567 C 45.609 362.567,66.310 342.182,66.310 341.447 C 66.310 340.908,56.973 331.561,56.429 331.555 C 56.190 331.553,51.338 336.223,45.645 341.932 M238.235 336.299 C 235.637 338.913,233.512 341.239,233.512 341.469 C 233.512 342.225,254.312 362.566,255.085 362.566 C 255.924 362.567,264.885 353.759,264.882 352.936 C 264.880 352.389,244.074 331.800,243.360 331.638 C 243.139 331.589,240.833 333.686,238.235 336.299 M341.176 347.415 L 341.176 362.567 348.307 362.567 L 355.437 362.567 355.437 347.415 L 355.437 332.264 348.307 332.264 L 341.176 332.264 341.176 347.415 M135.554 340.403 C 135.206 340.626,135.123 342.318,135.197 347.620 L 135.294 354.545 150.542 354.638 L 165.790 354.731 165.694 347.508 L 165.597 340.285 150.802 340.199 C 142.665 340.152,135.803 340.244,135.554 340.403 " stroke="none" fill="#A3C2B2" fill-rule="evenodd"></path></g></svg>