<svg id="svg" xmlns="http://www.w3.org/2000/svg" xmlns:xlink="http://www.w3.org/1999/xlink" width="400" height="397.9617834394905" viewBox="0, 0, 400,397.9617834394905"><g id="svgg"><path id="path0" d="M8.662 99.873 L 8.662 192.102 101.146 192.102 L 193.631 192.102 193.631 99.873 L 193.631 7.643 101.146 7.643 L 8.662 7.643 8.662 99.873 M207.898 99.873 L 207.898 192.102 300.127 192.102 L 392.357 192.102 392.357 99.873 L 392.357 7.643 300.127 7.643 L 207.898 7.643 207.898 99.873 M99.873 99.873 L 99.873 190.064 55.287 190.064 L 10.701 190.064 10.701 99.873 L 10.701 9.682 55.287 9.682 L 99.873 9.682 99.873 99.873 M191.083 99.873 L 191.083 190.064 146.752 190.064 L 102.420 190.064 102.420 99.873 L 102.420 9.682 146.752 9.682 L 191.083 9.682 191.083 99.873 M390.318 98.854 C 390.318 147.898,390.261 188.025,390.191 188.025 C 390.120 188.025,349.936 147.898,300.892 98.854 L 211.721 9.682 301.020 9.682 L 390.318 9.682 390.318 98.854 M299.363 100.892 L 388.534 190.064 299.235 190.064 L 209.936 190.064 209.936 100.892 C 209.936 51.847,209.994 11.720,210.064 11.720 C 210.135 11.720,250.319 51.847,299.363 100.892 M8.662 298.854 L 8.662 391.338 101.146 391.338 L 193.631 391.338 193.631 298.854 L 193.631 206.369 101.146 206.369 L 8.662 206.369 8.662 298.854 M207.898 298.854 L 207.898 391.338 300.127 391.338 L 392.357 391.338 392.357 298.854 L 392.357 206.369 300.127 206.369 L 207.898 206.369 207.898 298.854 M188.535 209.045 C 188.535 209.115,148.522 249.185,99.618 298.089 L 10.701 387.005 10.701 297.961 L 10.701 208.917 99.618 208.917 C 148.522 208.917,188.535 208.975,188.535 209.045 M390.318 253.248 L 390.318 297.580 300.127 297.580 L 209.936 297.580 209.936 253.248 L 209.936 208.917 300.127 208.917 L 390.318 208.917 390.318 253.248 M191.083 299.618 L 191.083 388.790 101.784 388.790 L 12.485 388.790 101.656 299.618 C 150.700 250.573,190.885 210.446,190.955 210.446 C 191.025 210.446,191.083 250.573,191.083 299.618 M390.318 344.459 L 390.318 388.790 300.127 388.790 L 209.936 388.790 209.936 344.459 L 209.936 300.127 300.127 300.127 L 390.318 300.127 390.318 344.459 " stroke="none" fill="#000000" fill-rule="evenodd"></path></g></svg>